<svg width="24" height="24" fill="none" xmlns="http://www.w3.org/2000/svg"><circle cx="12" cy="12" r="12" fill="#fff"/><path d="M6.87074 8.92017C6.87074 7.87329 7.05824 7.10767 7.43324 6.62329C7.80824 6.13892 8.30563 5.89673 8.92543 5.89673C9.56605 5.89673 10.0739 6.13892 10.4489 6.62329C10.8239 7.10767 11.0114 7.87329 11.0114 8.92017C11.0114 9.96704 10.8239 10.7327 10.4489 11.217C10.0739 11.7014 9.57647 11.9436 8.95668 11.9436C8.32126 11.9436 7.81345 11.704 7.43324 11.2249C7.05824 10.7405 6.87074 9.97225 6.87074 8.92017ZM8.27699 8.90454C8.27699 9.63371 8.33688 10.1129 8.45668 10.342C8.57647 10.5712 8.73272 10.6858 8.92543 10.6858C9.12334 10.6858 9.2822 10.5712 9.40199 10.342C9.52178 10.1129 9.58168 9.63371 9.58168 8.90454C9.58168 8.17537 9.52178 7.69621 9.40199 7.46704C9.2822 7.23787 9.12595 7.12329 8.93324 7.12329C8.73532 7.12329 8.57647 7.23787 8.45668 7.46704C8.33688 7.69621 8.27699 8.17537 8.27699 8.90454ZM10.3004 17.9827H8.96449L13.9723 5.89673H15.2614L10.3004 17.9827ZM13.2067 14.9749C13.2067 13.928 13.3942 13.1624 13.7692 12.678C14.1494 12.1936 14.652 11.9514 15.277 11.9514C15.9072 11.9514 16.4098 12.1936 16.7848 12.678C17.1598 13.1624 17.3473 13.928 17.3473 14.9749C17.3473 16.0217 17.1598 16.79 16.7848 17.2795C16.4098 17.7639 15.9124 18.0061 15.2926 18.0061C14.6572 18.0061 14.1494 17.7639 13.7692 17.2795C13.3942 16.7952 13.2067 16.0269 13.2067 14.9749ZM14.6129 14.967C14.6129 15.6962 14.6702 16.1754 14.7848 16.4045C14.9046 16.6337 15.0634 16.7483 15.2614 16.7483C15.4593 16.7483 15.6181 16.6337 15.7379 16.4045C15.8577 16.1754 15.9176 15.6962 15.9176 14.967C15.9176 14.2379 15.8577 13.7587 15.7379 13.5295C15.6181 13.3004 15.4619 13.1858 15.2692 13.1858C15.0661 13.1858 14.9046 13.3004 14.7848 13.5295C14.6702 13.7587 14.6129 14.2379 14.6129 14.967Z" fill="#98B020"/></svg>