<svg width="33" height="33" viewBox="0 0 33 33" fill="none" xmlns="http://www.w3.org/2000/svg">
<circle cx="16.668" cy="16.7227" r="15.7227" stroke="#333333"/>
<g clip-path="url(#clip0)">
<path d="M16.6702 13.4292C14.8514 13.4292 13.3789 14.9033 13.3789 16.7205C13.3789 18.5393 14.853 20.0117 16.6702 20.0117C18.489 20.0117 19.9614 18.5377 19.9614 16.7205C19.9614 14.9017 18.4874 13.4292 16.6702 13.4292ZM16.6702 18.8567C15.4895 18.8567 14.5339 17.9006 14.5339 16.7205C14.5339 15.5404 15.4901 14.5842 16.6702 14.5842C17.8503 14.5842 18.8064 15.5404 18.8064 16.7205C18.807 17.9006 17.8508 18.8567 16.6702 18.8567Z" fill="#333333"/>
<path d="M19.3122 10.3499C18.1321 10.2948 15.2091 10.2975 14.0279 10.3499C12.99 10.3985 12.0744 10.6492 11.3363 11.3873C10.1028 12.6208 10.2604 14.283 10.2604 16.7207C10.2604 19.2156 10.1215 20.8394 11.3363 22.0542C12.5747 23.292 14.2609 23.1301 16.6698 23.1301C19.1412 23.1301 19.9942 23.1317 20.8681 22.7934C22.0562 22.3321 22.953 21.2701 23.0407 19.3626C23.0963 18.182 23.0931 15.2595 23.0407 14.0783C22.9349 11.8266 21.7264 10.461 19.3122 10.3499ZM21.1802 21.2381C20.3715 22.0467 19.2497 21.9746 16.6543 21.9746C13.982 21.9746 12.9103 22.0141 12.1284 21.2301C11.2278 20.3338 11.3908 18.8944 11.3908 16.7122C11.3908 13.7592 11.0878 11.6326 14.0514 11.4808C14.7323 11.4567 14.9328 11.4487 16.6468 11.4487L16.6709 11.4648C19.5191 11.4648 21.7537 11.1665 21.8878 14.1296C21.9183 14.8057 21.9252 15.0088 21.9252 16.7202C21.9247 19.3616 21.9749 20.4396 21.1802 21.2381Z" fill="#333333"/>
<path d="M20.0919 14.0685C20.5166 14.0685 20.861 13.7241 20.861 13.2994C20.861 12.8746 20.5166 12.5303 20.0919 12.5303C19.6671 12.5303 19.3228 12.8746 19.3228 13.2994C19.3228 13.7241 19.6671 14.0685 20.0919 14.0685Z" fill="#333333"/>
</g>
<defs>
<clipPath id="clip0">
<rect width="12.8273" height="12.8273" fill="white" transform="translate(10.2544 10.3091)"/>
</clipPath>
</defs>
</svg>
