<svg width="33" height="33" viewBox="0 0 33 33" fill="none" xmlns="http://www.w3.org/2000/svg">
<circle cx="16.2227" cy="16.7227" r="15.7227" stroke="#333333"/>
<g clip-path="url(#clip0)">
<path d="M11.6592 18.2148C12.5763 18.2148 13.3184 18.959 13.3184 19.874C13.3184 20.7912 12.5743 21.5332 11.6592 21.5332C10.7421 21.5332 10 20.7891 10 19.874C10 18.9569 10.7441 18.2148 11.6592 18.2148Z" fill="#333333"/>
<path d="M10.002 15.9034C13.0911 15.9034 15.6132 18.4089 15.6132 21.5459H17.9207C17.9207 17.1603 14.3688 13.5918 10.002 13.5918V15.9034Z" fill="#333333"/>
<path d="M10.0054 11.8075C15.3457 11.8075 19.6937 16.1785 19.6937 21.5479H22.0012C22.0012 14.9028 16.6192 9.5 10.0054 9.5V11.8075Z" fill="#333333"/>
</g>
<defs>
<clipPath id="clip0">
<rect width="12" height="12.0479" fill="white" transform="translate(10 9.5)"/>
</clipPath>
</defs>
</svg>
