<svg width="33" height="33" viewBox="0 0 33 33" fill="none" xmlns="http://www.w3.org/2000/svg">
<circle cx="16.5592" cy="16.7227" r="15.7227" stroke="#333333"/>
<g clip-path="url(#clip0)">
<path d="M22.9314 14.027C23.5451 13.5913 24.0614 13.0474 24.482 12.4211V12.4205C23.9205 12.6663 23.3232 12.8298 22.6994 12.909C23.3408 12.5261 23.8306 11.9244 24.0607 11.1994C23.4628 11.5559 22.8025 11.8074 22.0989 11.9483C21.5311 11.3434 20.7219 10.9692 19.8391 10.9692C18.1262 10.9692 16.7473 12.3595 16.7473 14.0635C16.7473 14.3087 16.7681 14.5445 16.819 14.769C14.2472 14.6432 11.971 13.4108 10.4418 11.5326C10.1752 11.996 10.018 12.5261 10.018 13.0964C10.018 14.1679 10.5695 15.1174 11.3925 15.6675C10.8952 15.6581 10.4079 15.5135 9.99475 15.2865V15.3205C9.99475 16.8239 11.0668 18.0727 12.4734 18.3606C12.2213 18.4298 11.9471 18.4625 11.6623 18.4625C11.4642 18.4625 11.2643 18.4512 11.0769 18.4097C11.4774 19.6346 12.6155 20.5356 13.9674 20.5652C12.9148 21.3883 11.578 21.8844 10.1312 21.8844C9.8778 21.8844 9.63445 21.873 9.39111 21.8422C10.7619 22.7257 12.3854 23.2306 14.1372 23.2306C19.597 23.2306 23.1553 18.6757 22.9314 14.027Z" fill="#333333"/>
</g>
<defs>
<clipPath id="clip0">
<rect width="15.0909" height="15.0909" fill="white" transform="translate(9.39111 9.55469)"/>
</clipPath>
</defs>
</svg>
