<svg width="34" height="33" viewBox="0 0 34 33" fill="none" xmlns="http://www.w3.org/2000/svg">
<circle cx="17.1134" cy="16.7227" r="15.7227" stroke="#333333"/>
<g clip-path="url(#clip0)">
<path d="M23.9647 13.0965L23.9826 13.2136C23.8094 12.5989 23.3416 12.1246 22.7473 11.952L22.7347 11.949C21.6171 11.6455 17.1196 11.6455 17.1196 11.6455C17.1196 11.6455 12.6336 11.6395 11.5046 11.949C10.8989 12.1246 10.4305 12.5989 10.2603 13.201L10.2573 13.2136C9.83976 15.3945 9.83677 18.015 10.2758 20.3501L10.2573 20.2318C10.4305 20.8465 10.8983 21.3208 11.4926 21.4934L11.5052 21.4964C12.6216 21.8004 17.1202 21.8004 17.1202 21.8004C17.1202 21.8004 21.6057 21.8004 22.7353 21.4964C23.3416 21.3208 23.8099 20.8465 23.9802 20.2443L23.9832 20.2318C24.1731 19.2175 24.2819 18.0503 24.2819 16.858C24.2819 16.8144 24.2819 16.7702 24.2813 16.726C24.2819 16.6853 24.2819 16.637 24.2819 16.5886C24.2819 15.3957 24.1731 14.2285 23.9647 13.0965ZM15.6848 18.9039V14.5474L19.4278 16.729L15.6848 18.9039Z" fill="#333333"/>
</g>
<defs>
<clipPath id="clip0">
<rect width="14.3364" height="14.3364" fill="white" transform="translate(9.94531 9.55469)"/>
</clipPath>
</defs>
</svg>
